<svg xmlns="http://www.w3.org/2000/svg" width="31.343" height="47.041" viewBox="0 0 31.343 47.041">
  <g id="Group_65" data-name="Group 65" transform="translate(-597.749 -255.345)">
    <path id="Path_54" data-name="Path 54" d="M620.657,255.388a4.27,4.27,0,0,0-2.637,1.651c-.7.927-1.265,2.839-1.923,6.509-.261,1.471-.456,2.718-.978,6.274-.416,2.835-.552,3.688-.585,3.652s-1.107-2.243-2.427-4.994c-3.7-7.7-4.979-10.121-6.038-11.408a2.945,2.945,0,0,0-1.754-.993,3.18,3.18,0,0,0-1.089-.1,4.519,4.519,0,0,0-4.193,2.39,3.569,3.569,0,0,0-.386,1.331c-.2,2.118,1.633,6.116,5.41,11.779a83,83,0,0,0,4.935,6.7c.3.338.335.4.154.261-.217-.169-1.059-.713-1.4-.9-2.868-1.585-5.208-1.375-6.524.592a4.374,4.374,0,0,0-.813,2.464,4.083,4.083,0,0,0,.923,2.548l.279.375-.371.132a5.026,5.026,0,0,0-3.3,4,8.754,8.754,0,0,0,.261,4.63,13.9,13.9,0,0,0,6.322,7.649,23.877,23.877,0,0,0,4.832,1.938,19.563,19.563,0,0,0,2.247.445,16.85,16.85,0,0,0,3.015,0,19.313,19.313,0,0,0,6.38-2.1,16.065,16.065,0,0,0,4.321-3.016,12.785,12.785,0,0,0,3.733-8.458,33.968,33.968,0,0,0-.408-6.5c-.518-3.093-1.46-5.329-2.843-6.752a4.309,4.309,0,0,0-2.449-1.272,6.107,6.107,0,0,1-.677-.206c-.037-.033-.059.077.518-2.589.942-4.354,1.728-7.576,2.2-9.047a6.447,6.447,0,0,0,.357-3.655,3.915,3.915,0,0,0-1.055-1.945,4.421,4.421,0,0,0-1.324-.967,4.137,4.137,0,0,0-1.879-.46A4.424,4.424,0,0,0,620.657,255.388Zm1.39.989a3.6,3.6,0,0,1,2.637,2.144,3.689,3.689,0,0,1,.209,1.519,6.434,6.434,0,0,1-.412,2c-.61,1.956-1.335,4.957-2.468,10.22-.188.89-.349,1.622-.357,1.629-.052.048-6.226.589-6.267.548,0,0,.029-.221.081-.486.118-.644.327-2.012.662-4.3a75.324,75.324,0,0,1,1.912-10.334,4.4,4.4,0,0,1,1.015-1.982,3.213,3.213,0,0,1,1.625-.956A4.681,4.681,0,0,1,622.047,256.377Zm-18.417.577a3.843,3.843,0,0,1,1.2.346c.309.154.552.427,1,1.111a45.64,45.64,0,0,1,2.578,4.718c.868,1.725,1.412,2.843,3.221,6.619.471.982,1.192,2.468,1.6,3.3.7,1.408.743,1.515.669,1.53-.044.011-.254.052-.467.092a5.316,5.316,0,0,0-1.453.463,3.676,3.676,0,0,0-1.931,2.277l-.118.36-.081-.092c-1.342-1.589-3.306-4.247-4.909-6.645-3.075-4.593-4.895-8.16-5.266-10.327a2.928,2.928,0,0,1,.092-1.589,3.665,3.665,0,0,1,3.387-2.2C603.233,256.918,603.45,256.933,603.63,256.954Zm19.318,18.156a5.356,5.356,0,0,1,1.681.636,6.332,6.332,0,0,1,1.728,2.236,20.692,20.692,0,0,1,1.71,8.109,27.544,27.544,0,0,1,0,2.817,11.962,11.962,0,0,1-6.1,9.661,33.4,33.4,0,0,1-3.207,1.6,15.841,15.841,0,0,1-4.556,1.2,16.568,16.568,0,0,1-2.177,0,19.715,19.715,0,0,1-6.116-1.817,13.954,13.954,0,0,1-3.8-2.762A11.789,11.789,0,0,1,600,294.035a9.672,9.672,0,0,1-1.243-5.182,5.325,5.325,0,0,1,1.39-3.405,3.517,3.517,0,0,1,1.1-.747,1.036,1.036,0,0,1,1.066,0c.456.18,1.725.8,2.17,1.063.408.243,1.361.761,2.1,1.144.305.158,1.008.537,1.563.839s1.361.732,1.791.952c.754.386.791.412,1.052.688a5.511,5.511,0,0,1,1.129,1.8,3.088,3.088,0,0,1-.235.9c-.191.434-.294.515-.993.776a4.975,4.975,0,0,1-1.824.32,7.411,7.411,0,0,1-.827-.04c-2.133-.357-4.181-1.78-6.208-4.31a1.854,1.854,0,0,0-.393-.4.491.491,0,0,0-.658.57,12.224,12.224,0,0,0,1.857,2.188,10.1,10.1,0,0,0,4.979,2.872,8.4,8.4,0,0,0,2.427,0,5.054,5.054,0,0,0,2.067-.853c.191-.191.188-.191.232.132a14.905,14.905,0,0,0,.331,1.478.511.511,0,0,0,.75.173c.2-.165.213-.305.081-.846a9.185,9.185,0,0,1,.07-5.13,7.635,7.635,0,0,1,1.953-3.063,20.461,20.461,0,0,1,2.5-1.916,21.92,21.92,0,0,1,2.924-1.563c.6-.25.6-.25.684-.427a.449.449,0,0,0-.062-.526c-.177-.213-.257-.213-1.089-.007a11.623,11.623,0,0,1-6.064.191,7,7,0,0,1-2.413-1.221,4.221,4.221,0,0,1-1.331-1.548l-.114-.232.073-.364a2.924,2.924,0,0,1,2.122-2.538,10.946,10.946,0,0,1,2.74-.39c2.368-.184,2.913-.228,4.038-.331.658-.063,1.386-.136,1.618-.162a5.133,5.133,0,0,1,.607-.044A8.568,8.568,0,0,1,622.948,275.111Zm-17.715,2.468a9.889,9.889,0,0,1,3.582,1.839c2.659,2,4.435,4.5,4.6,6.5a1.706,1.706,0,0,1-.757,1.684c-.949.485-2.876-.081-5.877-1.721-.46-.254-1.133-.618-1.5-.816a8.062,8.062,0,0,1-3.586-3.2,2.543,2.543,0,0,1-.305-1.272,2.893,2.893,0,0,1,.305-1.313,2.849,2.849,0,0,1,1.968-1.762A5.085,5.085,0,0,1,605.233,277.578Zm7.87,4.6a8.419,8.419,0,0,0,2.056.655,9.594,9.594,0,0,0,2.052.143c.449-.007.817-.007.817,0s-.235.162-.522.353a17.67,17.67,0,0,0-2.7,2.151l-.416.423v-.14a6.16,6.16,0,0,0-.243-1.166,9.4,9.4,0,0,0-1.066-2.173c-.129-.195-.228-.357-.224-.357S612.971,282.12,613.1,282.182Zm-.272,6.495c-.037.132-.25.916-.276,1.022l-.029.11-.187-.279c-.1-.151-.272-.382-.379-.515l-.188-.235.379-.044a3.712,3.712,0,0,0,.489-.081C612.809,288.6,612.853,288.607,612.831,288.677Z"/>
  </g>
</svg>
